<svg xmlns="http://www.w3.org/2000/svg" width="172" height="80" viewBox="0 0 172 80" role="img" aria-labelledby="title">
  <title id="title">Triple A - Assier Anteneh Alemu</title>
  <defs>
    <path id="triple-a-glyph" fill-rule="evenodd" d="M29 4C14 4 5 10 3 23l16 3c1-7 5-10 11-10 9 0 13 4 13 12v2l-18 2C8 34 0 41 0 54c0 13 9 20 22 20 10 0 17-4 22-10v8h14V30C58 12 49 4 29 4ZM43 42v5c0 10-6 15-15 15-7 0-11-3-11-8 0-5 3-8 12-9l14-3Z"/>
  </defs>
  <use href="#triple-a-glyph" fill="#242620"/>
  <use href="#triple-a-glyph" x="56" fill="#242620"/>
  <use href="#triple-a-glyph" x="112" fill="#aa3518"/>
</svg>
